<svg xmlns="http://www.w3.org/2000/svg" viewBox="0 0 256 256" role="img" aria-label="ElimuLink logo">
  <defs>
    <linearGradient id="capGrad" x1="24" y1="24" x2="214" y2="112" gradientUnits="userSpaceOnUse">
      <stop offset="0" stop-color="#1D4ED8" />
      <stop offset="0.52" stop-color="#0EA5E9" />
      <stop offset="1" stop-color="#06B6D4" />
    </linearGradient>
    <linearGradient id="bookGrad" x1="38" y1="138" x2="216" y2="224" gradientUnits="userSpaceOnUse">
      <stop offset="0" stop-color="#0EA5E9" />
      <stop offset="1" stop-color="#22C55E" />
    </linearGradient>
  </defs>

  <!-- Graduation cap -->
  <polygon points="128,34 30,74 128,112 226,74" fill="url(#capGrad)" />
  <path
    d="M68 86c24-5 44-8 60-8s36 3 60 8l-60 29z"
    fill="#1E3A8A"
    opacity="0.88"
  />
  <path
    d="M210 80v34c0 15-15 24-34 28-18 4-41 5-48 5s-30-1-48-5c-19-4-34-13-34-28V80"
    fill="#F8FAFC"
    opacity="0.9"
  />

  <!-- Tassel -->
  <path d="M208 76c9 2 14 8 14 16 0 8-6 13-14 16" fill="none" stroke="#0EA5E9" stroke-width="5" stroke-linecap="round" />
  <line x1="222" y1="108" x2="222" y2="134" stroke="#0EA5E9" stroke-width="4" stroke-linecap="round" />
  <circle cx="222" cy="141" r="6" fill="#0EA5E9" />

  <!-- Open book -->
  <path
    d="M42 132c21-11 44-17 69-17 7 0 14 1 17 3v92c-3-2-10-3-17-3-24 0-48 5-69 14z"
    fill="url(#bookGrad)"
  />
  <path
    d="M214 132c-21-11-44-17-69-17-7 0-14 1-17 3v92c3-2 10-3 17-3 24 0 48 5 69 14z"
    fill="url(#bookGrad)"
  />
  <path d="M42 132v89c29-11 56-15 86-11v-92c-30-4-57 0-86 14z" fill="#0EA5E9" opacity="0.14" />
  <path d="M214 132v89c-29-11-56-15-86-11v-92c30-4 57 0 86 14z" fill="#22C55E" opacity="0.14" />

  <!-- White highlights -->
  <path d="M59 159c16-5 31-8 47-8" fill="none" stroke="#FFFFFF" stroke-width="4.5" stroke-linecap="round" opacity="0.9" />
  <path d="M151 151c16 0 31 3 46 8" fill="none" stroke="#FFFFFF" stroke-width="4.5" stroke-linecap="round" opacity="0.9" />
  <path d="M58 177c15-5 30-7 46-7" fill="none" stroke="#FFFFFF" stroke-width="3.8" stroke-linecap="round" opacity="0.82" />
  <path d="M152 170c15 0 30 2 45 7" fill="none" stroke="#FFFFFF" stroke-width="3.8" stroke-linecap="round" opacity="0.82" />

  <!-- Base accent -->
  <path d="M42 221h172" stroke="url(#bookGrad)" stroke-width="6" stroke-linecap="round" />
</svg>
